mtllib Final Project.mtl
o empty_5
usemtl __DEFAULT
v 183.50000190734863 171.00000190734863 2.000000476837158
v 183.50000190734863 171.00000190734863 53.00000190734863
v 72.49999809265137 171.00000190734863 2.000000476837158
v 72.49999809265137 171.00000190734863 53.00000190734863
v 73.50000190734863 82.50000286102295 32.99999952316284
v 73.50000190734863 82.50000286102295 24.000000953674316
v 73.50000190734863 82.00000095367432 32.99999952316284
v 73.50000190734863 82.00000095367432 24.000000953674316
v 72.49999809265137 82.50000286102295 32.99999952316284
v 70.5 82.00000095367432 32.99999952316284
v 70.5 89.00000143051147 32.99999952316284
v 72.49999809265137 89.00000143051147 32.99999952316284
v 72.49999809265137 89.00000143051147 24.000000953674316
v 70.5 89.00000143051147 24.000000953674316
v 72.49999809265137 82.50000286102295 24.000000953674316
v 70.5 82.00000095367432 24.000000953674316
v 72.49999809265137 82.50000286102295 2.000000476837158
v 183.50000190734863 82.50000286102295 2.000000476837158
v 178.50000190734863 82.50000286102295 53.00000190734863
v 183.50000190734863 82.50000286102295 53.00000190734863
v 77.49999809265137 82.50000286102295 53.00000190734863
v 72.49999809265137 82.50000286102295 53.00000190734863
v 183.50000190734863 128.75000286102295 2.000000476837158
v 183.50000190734863 128.75000286102295 40
v 183.50000190734863 126.00000190734863 40
v 183.50000190734863 126.00000190734863 2.000000476837158
v 77.49999809265137 164.99999809265137 53.00000190734863
v 178.50000190734863 164.99999809265137 53.00000190734863
v 72.49999809265137 128.75000286102295 2.000000476837158
v 72.49999809265137 128.75000286102295 40
v 72.49999809265137 126.00000190734863 40
v 72.49999809265137 126.00000190734863 2.000000476837158
v 70.58518695831299 174.99999809265137 1.8529534339904785
v 70.58518695831299 161.5714340209961 1.8529534339904785
v 70.5 174.99999809265137 2.5
v 70.58518695831299 148.14286041259766 1.8529534339904785
v 70.58518695831299 134.71428680419922 1.8529534339904785
v 70.83493518829346 134.71428680419922 1.25
v 70.83493518829346 121.28571796417236 1.25
v 71.23223114013672 121.28571796417236 0.7322335243225098
v 71.23223114013672 107.85714435577393 0.7322335243225098
v 71.75 107.85714435577393 0.33493757247924805
v 71.75 94.42857313156128 0.33493757247924805
v 72.35295104980469 94.42857313156128 0.08518457412719727
v 72.35295104980469 81.00000190734863 0.08518457412719727
v 73 81.00000190734863 0
v 72.35295104980469 107.85714435577393 0.08518457412719727
v 72.35295104980469 121.28571796417236 0.08518457412719727
v 71.75 121.28571796417236 0.33493757247924805
v 71.75 134.71428680419922 0.33493757247924805
v 71.23223114013672 134.71428680419922 0.7322335243225098
v 71.23223114013672 148.14286041259766 0.7322335243225098
v 70.83493518829346 148.14286041259766 1.25
v 70.83493518829346 161.5714340209961 1.25
v 70.83493518829346 174.99999809265137 1.25
v 71.23223114013672 161.5714340209961 0.7322335243225098
v 71.75 148.14286041259766 0.33493757247924805
v 72.35295104980469 134.71428680419922 0.08518457412719727
v 71.23223114013672 174.99999809265137 0.7322335243225098
v 71.75 161.5714340209961 0.33493757247924805
v 72.35295104980469 148.14286041259766 0.08518457412719727
v 73 174.99999809265137 0
v 71.75 174.99999809265137 0.33493757247924805
v 72.35295104980469 161.5714340209961 0.08518457412719727
v 72.35295104980469 174.99999809265137 0.08518457412719727
v 71.75 81.00000190734863 0.33493757247924805
v 71.23223114013672 94.42857313156128 0.7322335243225098
v 70.83493518829346 107.85714435577393 1.25
v 70.58518695831299 121.28571796417236 1.8529534339904785
v 71.23223114013672 81.00000190734863 0.7322335243225098
v 70.83493518829346 94.42857313156128 1.25
v 70.58518695831299 107.85714435577393 1.8529534339904785
v 70.5 81.00000190734863 2.5
v 70.83493518829346 81.00000190734863 1.25
v 70.58518695831299 94.42857313156128 1.8529534339904785
v 70.58518695831299 81.00000190734863 1.8529534339904785
v 183 174.99999809265137 0
v 183 81.00000190734863 0
v 185.5 174.99999809265137 2.5
v 70.5 174.99999809265137 52.5
v 185.5 174.99999809265137 52.5
v 73 174.99999809265137 55
v 183 174.99999809265137 55
v 70.58518695831299 174.99999809265137 53.14704895019531
v 70.83493518829346 174.99999809265137 53.75
v 71.23223114013672 174.99999809265137 54.26776885986328
v 71.75 174.99999809265137 54.66506481170654
v 72.35295104980469 174.99999809265137 54.91481304168701
v 183.6470489501953 174.99999809265137 54.91481304168701
v 184.25 174.99999809265137 54.66506481170654
v 184.76776885986328 174.99999809265137 54.26776885986328
v 185.16506004333496 174.99999809265137 53.75
v 185.4148178100586 174.99999809265137 53.14704895019531
v 185.4148178100586 174.99999809265137 1.8529534339904785
v 185.16506004333496 174.99999809265137 1.25
v 184.76776885986328 174.99999809265137 0.7322335243225098
v 184.25 174.99999809265137 0.33493757247924805
v 183.6470489501953 174.99999809265137 0.08518457412719727
v 183.6470489501953 161.5714340209961 0.08518457412719727
v 183.6470489501953 148.14286041259766 0.08518457412719727
v 183.6470489501953 134.71428680419922 0.08518457412719727
v 184.25 134.71428680419922 0.33493757247924805
v 184.25 121.28571796417236 0.33493757247924805
v 184.76776885986328 121.28571796417236 0.7322335243225098
v 184.76776885986328 107.85714435577393 0.7322335243225098
v 185.16506004333496 107.85714435577393 1.25
v 185.16506004333496 94.42857313156128 1.25
v 185.4148178100586 94.42857313156128 1.8529534339904785
v 185.4148178100586 81.00000190734863 1.8529534339904785
v 185.5 81.00000190734863 2.5
v 185.4148178100586 107.85714435577393 1.8529534339904785
v 185.4148178100586 121.28571796417236 1.8529534339904785
v 185.16506004333496 121.28571796417236 1.25
v 185.16506004333496 134.71428680419922 1.25
v 184.76776885986328 134.71428680419922 0.7322335243225098
v 184.76776885986328 148.14286041259766 0.7322335243225098
v 184.25 148.14286041259766 0.33493757247924805
v 184.25 161.5714340209961 0.33493757247924805
v 184.76776885986328 161.5714340209961 0.7322335243225098
v 185.16506004333496 148.14286041259766 1.25
v 185.4148178100586 134.71428680419922 1.8529534339904785
v 185.16506004333496 161.5714340209961 1.25
v 185.4148178100586 148.14286041259766 1.8529534339904785
v 185.4148178100586 161.5714340209961 1.8529534339904785
v 185.16506004333496 81.00000190734863 1.25
v 184.76776885986328 94.42857313156128 0.7322335243225098
v 184.25 107.85714435577393 0.33493757247924805
v 183.6470489501953 121.28571796417236 0.08518457412719727
v 184.76776885986328 81.00000190734863 0.7322335243225098
v 184.25 94.42857313156128 0.33493757247924805
v 183.6470489501953 107.85714435577393 0.08518457412719727
v 184.25 81.00000190734863 0.33493757247924805
v 183.6470489501953 94.42857313156128 0.08518457412719727
v 183.6470489501953 81.00000190734863 0.08518457412719727
v 185.5 81.00000190734863 52.5
v 185.4148178100586 161.5714340209961 53.14704895019531
v 185.4148178100586 148.14286041259766 53.14704895019531
v 185.4148178100586 134.71428680419922 53.14704895019531
v 185.16506004333496 134.71428680419922 53.75
v 185.16506004333496 121.28571796417236 53.75
v 184.76776885986328 121.28571796417236 54.26776885986328
v 184.76776885986328 107.85714435577393 54.26776885986328
v 184.25 107.85714435577393 54.66506481170654
v 184.25 94.42857313156128 54.66506481170654
v 183.6470489501953 94.42857313156128 54.91481304168701
v 183.6470489501953 81.00000190734863 54.91481304168701
v 183 81.00000190734863 55
v 183.6470489501953 107.85714435577393 54.91481304168701
v 183.6470489501953 121.28571796417236 54.91481304168701
v 184.25 121.28571796417236 54.66506481170654
v 184.25 134.71428680419922 54.66506481170654
v 184.76776885986328 134.71428680419922 54.26776885986328
v 184.76776885986328 148.14286041259766 54.26776885986328
v 185.16506004333496 148.14286041259766 53.75
v 185.16506004333496 161.5714340209961 53.75
v 184.76776885986328 161.5714340209961 54.26776885986328
v 184.25 148.14286041259766 54.66506481170654
v 183.6470489501953 134.71428680419922 54.91481304168701
v 184.25 161.5714340209961 54.66506481170654
v 183.6470489501953 148.14286041259766 54.91481304168701
v 183.6470489501953 161.5714340209961 54.91481304168701
v 184.25 81.00000190734863 54.66506481170654
v 184.76776885986328 94.42857313156128 54.26776885986328
v 185.16506004333496 107.85714435577393 53.75
v 185.4148178100586 121.28571796417236 53.14704895019531
v 184.76776885986328 81.00000190734863 54.26776885986328
v 185.16506004333496 94.42857313156128 53.75
v 185.4148178100586 107.85714435577393 53.14704895019531
v 185.16506004333496 81.00000190734863 53.75
v 185.4148178100586 94.42857313156128 53.14704895019531
v 185.4148178100586 81.00000190734863 53.14704895019531
v 178.50000190734863 81.00000190734863 55
v 178.50000190734863 164.99999809265137 55
v 77.49999809265137 164.99999809265137 55
v 73 81.00000190734863 55
v 77.49999809265137 81.00000190734863 55
v 72.35295104980469 161.5714340209961 54.91481304168701
v 72.35295104980469 148.14286041259766 54.91481304168701
v 72.35295104980469 134.71428680419922 54.91481304168701
v 71.75 134.71428680419922 54.66506481170654
v 71.75 121.28571796417236 54.66506481170654
v 71.23223114013672 121.28571796417236 54.26776885986328
v 71.23223114013672 107.85714435577393 54.26776885986328
v 70.83493518829346 107.85714435577393 53.75
v 70.83493518829346 94.42857313156128 53.75
v 70.58518695831299 94.42857313156128 53.14704895019531
v 70.58518695831299 81.00000190734863 53.14704895019531
v 70.5 81.00000190734863 52.5
v 70.58518695831299 107.85714435577393 53.14704895019531
v 70.58518695831299 121.28571796417236 53.14704895019531
v 70.83493518829346 121.28571796417236 53.75
v 70.83493518829346 134.71428680419922 53.75
v 71.23223114013672 134.71428680419922 54.26776885986328
v 71.23223114013672 148.14286041259766 54.26776885986328
v 71.75 148.14286041259766 54.66506481170654
v 71.75 161.5714340209961 54.66506481170654
v 71.23223114013672 161.5714340209961 54.26776885986328
v 70.83493518829346 148.14286041259766 53.75
v 70.58518695831299 134.71428680419922 53.14704895019531
v 70.83493518829346 161.5714340209961 53.75
v 70.58518695831299 148.14286041259766 53.14704895019531
v 70.58518695831299 161.5714340209961 53.14704895019531
v 70.83493518829346 81.00000190734863 53.75
v 71.23223114013672 94.42857313156128 54.26776885986328
v 71.75 107.85714435577393 54.66506481170654
v 72.35295104980469 121.28571796417236 54.91481304168701
v 71.23223114013672 81.00000190734863 54.26776885986328
v 71.75 94.42857313156128 54.66506481170654
v 72.35295104980469 107.85714435577393 54.91481304168701
v 71.75 81.00000190734863 54.66506481170654
v 72.35295104980469 94.42857313156128 54.91481304168701
v 72.35295104980469 81.00000190734863 54.91481304168701
v 178.50000190734863 81.00000190734863 53.00000190734863
v 77.49999809265137 81.00000190734863 53.00000190734863
f 1 2 3
f 3 2 4
f 5 6 7
f 7 6 8
f 5 7 9
f 9 7 10
f 9 10 11
f 11 12 9
f 13 12 14
f 14 12 11
f 6 15 8
f 8 15 16
f 16 15 14
f 14 15 13
f 16 10 8
f 8 10 7
f 15 6 17
f 17 6 18
f 18 6 19
f 18 19 20
f 6 5 19
f 19 5 21
f 21 5 22
f 22 5 9
f 23 24 1
f 1 24 2
f 2 24 25
f 2 25 20
f 20 25 18
f 18 25 26
f 21 22 27
f 27 22 4
f 27 4 2
f 27 2 28
f 28 2 20
f 28 20 19
f 29 23 3
f 3 23 1
f 24 30 25
f 25 30 31
f 25 31 26
f 26 31 32
f 30 24 29
f 29 24 23
f 15 17 13
f 13 17 32
f 13 32 31
f 30 4 31
f 31 4 22
f 31 22 12
f 12 22 9
f 29 3 30
f 30 3 4
f 12 13 31
f 33 34 35
f 35 34 36
f 35 36 37
f 37 36 38
f 37 38 39
f 39 38 40
f 39 40 41
f 41 40 42
f 41 42 43
f 43 42 44
f 43 44 45
f 45 44 46
f 46 44 47
f 46 47 48
f 48 47 49
f 48 49 50
f 50 49 51
f 50 51 52
f 52 51 53
f 52 53 54
f 54 53 34
f 54 34 33
f 33 55 54
f 54 55 56
f 54 56 52
f 52 56 57
f 52 57 50
f 50 57 58
f 50 58 48
f 48 58 46
f 55 59 56
f 56 59 60
f 56 60 57
f 57 60 61
f 57 61 58
f 58 61 62
f 58 62 46
f 59 63 60
f 60 63 64
f 60 64 61
f 61 64 62
f 63 65 64
f 64 65 62
f 45 66 43
f 43 66 67
f 43 67 41
f 41 67 68
f 41 68 39
f 39 68 69
f 39 69 37
f 37 69 35
f 66 70 67
f 67 70 71
f 67 71 68
f 68 71 72
f 68 72 69
f 69 72 73
f 69 73 35
f 70 74 71
f 71 74 75
f 71 75 72
f 72 75 73
f 74 76 75
f 75 76 73
f 38 36 53
f 53 36 34
f 40 38 51
f 51 38 53
f 42 40 49
f 49 40 51
f 44 42 47
f 47 42 49
f 62 77 46
f 46 77 78
f 65 63 62
f 62 63 59
f 62 59 55
f 55 33 62
f 62 33 35
f 62 35 79
f 79 35 80
f 79 80 81
f 81 80 82
f 81 82 83
f 80 84 82
f 82 84 85
f 82 85 86
f 86 87 82
f 82 87 88
f 89 90 83
f 83 90 91
f 83 91 92
f 92 93 83
f 83 93 81
f 62 79 77
f 77 79 94
f 77 94 95
f 95 96 77
f 77 96 97
f 77 97 98
f 98 99 77
f 77 99 100
f 77 100 101
f 101 100 102
f 101 102 103
f 103 102 104
f 103 104 105
f 105 104 106
f 105 106 107
f 107 106 108
f 107 108 109
f 109 108 110
f 110 108 111
f 110 111 112
f 112 111 113
f 112 113 114
f 114 113 115
f 114 115 116
f 116 115 117
f 116 117 118
f 118 117 99
f 118 99 98
f 98 97 118
f 118 97 119
f 118 119 116
f 116 119 120
f 116 120 114
f 114 120 121
f 114 121 112
f 112 121 110
f 97 96 119
f 119 96 122
f 119 122 120
f 120 122 123
f 120 123 121
f 121 123 79
f 121 79 110
f 96 95 122
f 122 95 124
f 122 124 123
f 123 124 79
f 95 94 124
f 124 94 79
f 109 125 107
f 107 125 126
f 107 126 105
f 105 126 127
f 105 127 103
f 103 127 128
f 103 128 101
f 101 128 77
f 125 129 126
f 126 129 130
f 126 130 127
f 127 130 131
f 127 131 128
f 128 131 78
f 128 78 77
f 129 132 130
f 130 132 133
f 130 133 131
f 131 133 78
f 132 134 133
f 133 134 78
f 102 100 117
f 117 100 99
f 104 102 115
f 115 102 117
f 106 104 113
f 113 104 115
f 108 106 111
f 111 106 113
f 79 81 110
f 110 81 135
f 93 136 81
f 81 136 137
f 81 137 138
f 138 137 139
f 138 139 140
f 140 139 141
f 140 141 142
f 142 141 143
f 142 143 144
f 144 143 145
f 144 145 146
f 146 145 147
f 147 145 148
f 147 148 149
f 149 148 150
f 149 150 151
f 151 150 152
f 151 152 153
f 153 152 154
f 153 154 155
f 155 154 136
f 155 136 93
f 93 92 155
f 155 92 156
f 155 156 153
f 153 156 157
f 153 157 151
f 151 157 158
f 151 158 149
f 149 158 147
f 92 91 156
f 156 91 159
f 156 159 157
f 157 159 160
f 157 160 158
f 158 160 83
f 158 83 147
f 91 90 159
f 159 90 161
f 159 161 160
f 160 161 83
f 90 89 161
f 161 89 83
f 146 162 144
f 144 162 163
f 144 163 142
f 142 163 164
f 142 164 140
f 140 164 165
f 140 165 138
f 138 165 81
f 162 166 163
f 163 166 167
f 163 167 164
f 164 167 168
f 164 168 165
f 165 168 135
f 165 135 81
f 166 169 167
f 167 169 170
f 167 170 168
f 168 170 135
f 169 171 170
f 170 171 135
f 139 137 154
f 154 137 136
f 141 139 152
f 152 139 154
f 143 141 150
f 150 141 152
f 145 143 148
f 148 143 150
f 172 147 173
f 173 147 83
f 173 83 82
f 173 82 174
f 174 82 175
f 174 175 176
f 88 177 82
f 82 177 178
f 82 178 179
f 179 178 180
f 179 180 181
f 181 180 182
f 181 182 183
f 183 182 184
f 183 184 185
f 185 184 186
f 185 186 187
f 187 186 188
f 188 186 189
f 188 189 190
f 190 189 191
f 190 191 192
f 192 191 193
f 192 193 194
f 194 193 195
f 194 195 196
f 196 195 177
f 196 177 88
f 88 87 196
f 196 87 197
f 196 197 194
f 194 197 198
f 194 198 192
f 192 198 199
f 192 199 190
f 190 199 188
f 87 86 197
f 197 86 200
f 197 200 198
f 198 200 201
f 198 201 199
f 199 201 80
f 199 80 188
f 86 85 200
f 200 85 202
f 200 202 201
f 201 202 80
f 85 84 202
f 202 84 80
f 187 203 185
f 185 203 204
f 185 204 183
f 183 204 205
f 183 205 181
f 181 205 206
f 181 206 179
f 179 206 82
f 203 207 204
f 204 207 208
f 204 208 205
f 205 208 209
f 205 209 206
f 206 209 175
f 206 175 82
f 207 210 208
f 208 210 211
f 208 211 209
f 209 211 175
f 210 212 211
f 211 212 175
f 180 178 195
f 195 178 177
f 182 180 193
f 193 180 195
f 184 182 191
f 191 182 193
f 186 184 189
f 189 184 191
f 28 19 173
f 173 19 172
f 172 19 213
f 26 32 18
f 18 32 17
f 10 188 11
f 11 188 80
f 11 80 14
f 14 80 35
f 14 35 73
f 10 16 188
f 188 16 73
f 73 16 14
f 27 174 21
f 21 174 176
f 21 176 214
f 19 21 213
f 213 21 214
f 173 174 28
f 28 174 27
f 76 46 73
f 73 46 78
f 73 78 110
f 110 78 109
f 109 78 125
f 125 78 129
f 129 78 132
f 132 78 134
f 76 74 46
f 46 74 70
f 46 70 66
f 66 45 46
f 135 213 110
f 110 213 214
f 110 214 73
f 73 214 188
f 188 214 187
f 187 214 203
f 203 214 207
f 207 214 175
f 207 175 210
f 210 175 212
f 135 171 213
f 213 171 169
f 213 169 166
f 213 166 147
f 147 166 162
f 147 162 146
f 147 172 213
f 214 176 175
